<svg viewBox="0 0 120 160" xmlns="http://www.w3.org/2000/svg">
    <defs>
    <linearGradient id="rbCloak" x1="0" y1="0" x2="0" y2="1">
        <stop offset="0%" stop-color="#7e5920"/>
        <stop offset="100%" stop-color="#4e3510"/>
    </linearGradient>
    </defs>
    <!-- legs -->
    <rect x="44" y="114" width="14" height="33" rx="4" fill="#4e3510"/>
    <rect x="62" y="114" width="14" height="33" rx="4" fill="#4e3510"/>
    <!-- boots -->
    <rect x="41" y="136" width="19" height="10" rx="3" fill="#2c1810"/>
    <rect x="60" y="136" width="19" height="10" rx="3" fill="#2c1810"/>
    <!-- body / cloak -->
    <path d="M36 72 Q30 100 28 150 L92 150 Q90 100 84 72 Z" fill="url(#rbCloak)"/>
    <!-- inner shirt -->
    <rect x="42" y="70" width="36" height="46" rx="6" fill="#d4a04a"/>
    <!-- belt / rope -->
    <rect x="36" y="106" width="48" height="7" rx="3" fill="#7e5920"/>
    <!-- money bag hanging on belt -->
    <ellipse cx="88" cy="114" rx="9" ry="10" fill="#f5c842"/>
    <rect x="84" y="104" width="8" height="6" rx="2" fill="#c9a227"/>
    <text x="83" y="118" font-size="10" fill="#7e5920">$</text>
    <!-- left arm -->
    <rect x="22" y="72" width="18" height="32" rx="5" fill="#7e5920"/>
    <!-- right arm -->
    <rect x="80" y="72" width="18" height="32" rx="5" fill="#7e5920"/>
    <!-- sack on left shoulder -->
    <ellipse cx="24" cy="68" rx="12" ry="10" fill="#a0845c"/>
    <rect x="20" y="58" width="6" height="12" rx="3" fill="#7a6040"/>
    <!-- neck -->
    <rect x="54" y="58" width="12" height="14" rx="4" fill="#f0c085"/>
    <!-- head -->
    <ellipse cx="60" cy="48" rx="20" ry="19" fill="#f0c085"/>
    <!-- cap -->
    <path d="M40 44 Q40 28 60 26 Q80 28 80 44 Z" fill="#4e3510"/>
    <rect x="37" y="42" width="46" height="6" rx="2" fill="#7e5920"/>
    <!-- eye mask -->
    <path d="M40 47 Q60 42 80 47 L80 54 Q60 50 40 54 Z" fill="#1a1a1a"/>
    <ellipse cx="50" cy="50" rx="6" ry="4" fill="#1a1a1a"/>
    <ellipse cx="70" cy="50" rx="6" ry="4" fill="#1a1a1a"/>
    <!-- eyes through mask -->
    <circle cx="50" cy="50" r="2.5" fill="#e74c3c"/>
    <circle cx="70" cy="50" r="2.5" fill="#e74c3c"/>
    <!-- mouth smirk -->
    <path d="M52 60 Q60 65 68 60" stroke="#c07040" stroke-width="1.5" fill="none" stroke-linecap="round"/>
</svg>