<svg viewBox="0 0 120 160" xmlns="http://www.w3.org/2000/svg">
    <defs>
    <linearGradient id="rLeather" x1="0" y1="0" x2="0" y2="1">
        <stop offset="0%" stop-color="#1b4332"/>
        <stop offset="100%" stop-color="#0d2818"/>
    </linearGradient>
    </defs>
    <!-- legs -->
    <rect x="44" y="112" width="14" height="35" rx="4" fill="#1b4332"/>
    <rect x="62" y="112" width="14" height="35" rx="4" fill="#1b4332"/>
    <!-- boots -->
    <rect x="41" y="136" width="19" height="10" rx="3" fill="#0d1b0f"/>
    <rect x="60" y="136" width="19" height="10" rx="3" fill="#0d1b0f"/>
    <!-- body -->
    <rect x="38" y="68" width="44" height="48" rx="8" fill="url(#rLeather)"/>
    <!-- belt -->
    <rect x="36" y="105" width="48" height="8" rx="3" fill="#2d4a1e"/>
    <rect x="56" y="104" width="8" height="10" rx="2" fill="#f5c842"/>
    <!-- left arm -->
    <rect x="22" y="70" width="18" height="32" rx="5" fill="#1b4332"/>
    <!-- right arm -->
    <rect x="80" y="70" width="18" height="32" rx="5" fill="#1b4332"/>
    <!-- left dagger -->
    <rect x="12" y="62" width="4" height="28" rx="2" fill="#b0bec5"/>
    <rect x="8" y="72" width="12" height="4" rx="1" fill="#f5c842"/>
    <rect x="13" y="86" width="3" height="8" rx="1" fill="#5d4037"/>
    <!-- right dagger -->
    <rect x="104" y="62" width="4" height="28" rx="2" fill="#b0bec5"/>
    <rect x="100" y="72" width="12" height="4" rx="1" fill="#f5c842"/>
    <rect x="104" y="86" width="3" height="8" rx="1" fill="#5d4037"/>
    <!-- neck -->
    <rect x="54" y="58" width="12" height="14" rx="4" fill="#c8a070"/>
    <!-- head -->
    <ellipse cx="60" cy="48" rx="19" ry="19" fill="#c8a070"/>
    <!-- scarf/mask over lower face -->
    <path d="M41 56 Q60 62 79 56 L79 50 Q60 56 41 50 Z" fill="#0d2818"/>
    <!-- eyes glowing -->
    <ellipse cx="53" cy="45" rx="4" ry="3.5" fill="#0d2818"/>
    <ellipse cx="67" cy="45" rx="4" ry="3.5" fill="#0d2818"/>
    <circle cx="53" cy="45" r="2" fill="#00e676"/>
    <circle cx="67" cy="45" r="2" fill="#00e676"/>
    <circle cx="53" cy="45" r=".8" fill="#b9f6ca"/>
    <circle cx="67" cy="45" r=".8" fill="#b9f6ca"/>
    <!-- hood -->
    <path d="M60 12 Q42 20 36 46 L84 46 Q78 20 60 12 Z" fill="#0d2818"/>
    <ellipse cx="60" cy="46" rx="24" ry="5" fill="#0d2818"/>
    <!-- hood shadow -->
    <path d="M42 30 Q60 22 78 30 Q74 44 60 44 Q46 44 42 30 Z" fill="#1b4332" opacity=".4"/>
</svg>