<svg viewBox="0 0 120 160" xmlns="http://www.w3.org/2000/svg">
    <defs>
    <linearGradient id="wArmor" x1="0" y1="0" x2="0" y2="1">
        <stop offset="0%" stop-color="#8a9bb0"/>
        <stop offset="100%" stop-color="#4a5a70"/>
    </linearGradient>
    <linearGradient id="wHelm" x1="0" y1="0" x2="0" y2="1">
        <stop offset="0%" stop-color="#b0bec5"/>
        <stop offset="100%" stop-color="#607d8b"/>
    </linearGradient>
    </defs>
    <!-- legs -->
    <rect x="42" y="112" width="16" height="34" rx="4" fill="#4a5a70"/>
    <rect x="62" y="112" width="16" height="34" rx="4" fill="#4a5a70"/>
    <!-- boots -->
    <rect x="40" y="136" width="20" height="10" rx="3" fill="#2c3e50"/>
    <rect x="60" y="136" width="20" height="10" rx="3" fill="#2c3e50"/>
    <!-- body / breastplate -->
    <rect x="36" y="68" width="48" height="50" rx="8" fill="url(#wArmor)"/>
    <rect x="44" y="74" width="32" height="38" rx="4" fill="#5d7a8a" opacity=".6"/>
    <!-- plate lines -->
    <line x1="36" y1="90" x2="84" y2="90" stroke="#3a4f60" stroke-width="1.5"/>
    <line x1="36" y1="105" x2="84" y2="105" stroke="#3a4f60" stroke-width="1.5"/>
    <!-- left arm + shield -->
    <rect x="16" y="70" width="22" height="38" rx="6" fill="url(#wArmor)"/>
    <!-- shield -->
    <path d="M6 74 L24 70 L24 102 Q15 112 6 104 Z" fill="#c0392b"/>
    <path d="M10 80 L20 77 L20 100 Q14 107 10 103 Z" fill="#e74c3c" opacity=".5"/>
    <line x1="15" y1="71" x2="15" y2="109" stroke="#922b21" stroke-width="2"/>
    <line x1="6" y1="90" x2="24" y2="90" stroke="#922b21" stroke-width="2"/>
    <!-- right arm + sword -->
    <rect x="82" y="70" width="22" height="38" rx="6" fill="url(#wArmor)"/>
    <!-- sword -->
    <rect x="101" y="28" width="6" height="60" rx="2" fill="#cfd8dc"/>
    <rect x="96" y="66" width="16" height="5" rx="2" fill="#f5c842"/>
    <rect x="102" y="86" width="5" height="10" rx="2" fill="#8d6e63"/>
    <!-- neck -->
    <rect x="53" y="60" width="14" height="12" rx="4" fill="#f0c085"/>
    <!-- head -->
    <ellipse cx="60" cy="50" rx="22" ry="20" fill="#f0c085"/>
    <!-- helmet -->
    <path d="M38 50 Q38 28 60 26 Q82 28 82 50 L78 50 Q76 36 60 34 Q44 36 42 50 Z" fill="url(#wHelm)"/>
    <rect x="38" y="46" width="44" height="8" rx="2" fill="#90a4ae"/>
    <!-- visor slit -->
    <rect x="46" y="50" width="28" height="5" rx="2" fill="#1a237e" opacity=".7"/>
    <!-- beard -->
    <ellipse cx="60" cy="65" rx="12" ry="5" fill="#8d6e63" opacity=".5"/>
</svg>